<svg width="16" height="16" viewBox="0 0 16 16" fill="none" xmlns="http://www.w3.org/2000/svg">
<path d="M4.745 10.6666V11.9999C4.745 12.7363 5.34195 13.3333 6.07833 13.3333H12.745C13.4814 13.3333 14.0783 12.7363 14.0783 11.9999V10.6666C14.0783 9.93021 13.4814 9.33325 12.745 9.33325H6.07833C5.34195 9.33325 4.745 9.93021 4.745 10.6666Z" stroke="#2863E5" stroke-linecap="round" stroke-linejoin="round"/>
<path d="M4.745 4.00008V5.33341C4.745 6.06979 5.34195 6.66675 6.07833 6.66675H10.0783C10.8147 6.66675 11.4117 6.06979 11.4117 5.33341V4.00008C11.4117 3.2637 10.8147 2.66675 10.0783 2.66675H6.07833C5.34195 2.66675 4.745 3.2637 4.745 4.00008Z" stroke="#2863E5" stroke-linecap="round" stroke-linejoin="round"/>
<path d="M1.92163 14.6667L1.92163 1.33325" stroke="#2863E5" stroke-linecap="round" stroke-linejoin="round"/>
</svg>
