<svg width="16" height="16" viewBox="0 0 16 16" fill="none" xmlns="http://www.w3.org/2000/svg">
<path d="M11.255 10.6666V11.9999C11.255 12.7363 10.6581 13.3333 9.92167 13.3333H3.255C2.51863 13.3333 1.92167 12.7363 1.92167 11.9999V10.6666C1.92167 9.93021 2.51863 9.33325 3.255 9.33325H9.92167C10.6581 9.33325 11.255 9.93021 11.255 10.6666Z" stroke="#2863E5" stroke-linecap="round" stroke-linejoin="round"/>
<path d="M11.255 4.00008V5.33341C11.255 6.06979 10.6581 6.66675 9.92167 6.66675H5.92167C5.18529 6.66675 4.58834 6.06979 4.58834 5.33341V4.00008C4.58834 3.2637 5.18529 2.66675 5.92167 2.66675H9.92167C10.6581 2.66675 11.255 3.2637 11.255 4.00008Z" stroke="#2863E5" stroke-linecap="round" stroke-linejoin="round"/>
<path d="M14.0784 14.6667L14.0784 1.33325" stroke="#2863E5" stroke-linecap="round" stroke-linejoin="round"/>
</svg>
