<svg width="16" height="16" viewBox="0 0 16 16" fill="none" xmlns="http://www.w3.org/2000/svg">
<path d="M11.883 8.567C11.9202 8.60416 11.9497 8.64828 11.9698 8.69684C11.9899 8.7454 12.0002 8.79744 12.0002 8.85C12.0002 8.90256 11.9899 8.9546 11.9698 9.00316C11.9497 9.05172 11.9202 9.09584 11.883 9.133C11.8458 9.17016 11.8017 9.19964 11.7532 9.21976C11.7046 9.23987 11.6526 9.25022 11.6 9.25022C11.5475 9.25022 11.4954 9.23987 11.4469 9.21976C11.3983 9.19964 11.3542 9.17016 11.317 9.133L8.40001 6.2155V12.85C8.40001 12.9561 8.35787 13.0578 8.28286 13.1328C8.20784 13.2079 8.1061 13.25 8.00001 13.25C7.89393 13.25 7.79218 13.2079 7.71717 13.1328C7.64216 13.0578 7.60001 12.9561 7.60001 12.85V6.2155L4.68301 9.133C4.64585 9.17016 4.60173 9.19964 4.55317 9.21976C4.50461 9.23987 4.45257 9.25022 4.40001 9.25022C4.34745 9.25022 4.29541 9.23987 4.24685 9.21976C4.1983 9.19964 4.15418 9.17016 4.11701 9.133C4.07985 9.09584 4.05037 9.05172 4.03025 9.00316C4.01014 8.9546 3.99979 8.90256 3.99979 8.85C3.99979 8.79744 4.01014 8.7454 4.03025 8.69684C4.05037 8.64828 4.07985 8.60416 4.11701 8.567L7.71701 4.967C7.75416 4.92981 7.79828 4.90031 7.84684 4.88018C7.8954 4.86005 7.94745 4.84969 8.00001 4.84969C8.05258 4.84969 8.10463 4.86005 8.15319 4.88018C8.20175 4.90031 8.24586 4.92981 8.28301 4.967L11.883 8.567ZM12.4 3.25H3.60001C3.49393 3.25 3.39218 3.29214 3.31717 3.36716C3.24216 3.44217 3.20001 3.54391 3.20001 3.65C3.20001 3.75609 3.24216 3.85783 3.31717 3.93284C3.39218 4.00786 3.49393 4.05 3.60001 4.05H12.4C12.5061 4.05 12.6078 4.00786 12.6829 3.93284C12.7579 3.85783 12.8 3.75609 12.8 3.65C12.8 3.54391 12.7579 3.44217 12.6829 3.36716C12.6078 3.29214 12.5061 3.25 12.4 3.25Z" fill="#808080"/>
</svg>
