<svg width="16" height="16" viewBox="0 0 16 16" fill="none" xmlns="http://www.w3.org/2000/svg">
<path d="M12.8 8C12.8 8.10609 12.7579 8.20783 12.6829 8.28284C12.6078 8.35786 12.5061 8.4 12.4 8.4H3.60001C3.49393 8.4 3.39218 8.35786 3.31717 8.28284C3.24216 8.20783 3.20001 8.10609 3.20001 8C3.20001 7.89391 3.24216 7.79217 3.31717 7.71716C3.39218 7.64214 3.49393 7.6 3.60001 7.6H12.4C12.5061 7.6 12.6078 7.64214 12.6829 7.71716C12.7579 7.79217 12.8 7.89391 12.8 8ZM7.71701 6.683C7.75416 6.72019 7.79828 6.74969 7.84684 6.76982C7.8954 6.78995 7.94745 6.80031 8.00001 6.80031C8.05258 6.80031 8.10463 6.78995 8.15319 6.76982C8.20175 6.74969 8.24586 6.72019 8.28301 6.683L9.88301 5.083C9.95807 5.00794 10.0002 4.90615 10.0002 4.8C10.0002 4.69385 9.95807 4.59206 9.88301 4.517C9.80796 4.44194 9.70616 4.39978 9.60001 4.39978C9.49387 4.39978 9.39207 4.44194 9.31701 4.517L8.40001 5.4345V2.4C8.40001 2.29391 8.35787 2.19217 8.28286 2.11716C8.20784 2.04214 8.1061 2 8.00001 2C7.89393 2 7.79218 2.04214 7.71717 2.11716C7.64216 2.19217 7.60001 2.29391 7.60001 2.4V5.4345L6.68301 4.517C6.64585 4.47984 6.60173 4.45036 6.55317 4.43024C6.50461 4.41013 6.45257 4.39978 6.40001 4.39978C6.29387 4.39978 6.19207 4.44194 6.11701 4.517C6.07985 4.55416 6.05037 4.59828 6.03025 4.64684C6.01014 4.6954 5.99979 4.74744 5.99979 4.8C5.99979 4.90615 6.04196 5.00794 6.11701 5.083L7.71701 6.683ZM8.28301 9.317C8.24586 9.27981 8.20175 9.25031 8.15319 9.23018C8.10463 9.21005 8.05258 9.19969 8.00001 9.19969C7.94745 9.19969 7.8954 9.21005 7.84684 9.23018C7.79828 9.25031 7.75416 9.27981 7.71701 9.317L6.11701 10.917C6.07985 10.9542 6.05037 10.9983 6.03025 11.0468C6.01014 11.0954 5.99979 11.1474 5.99979 11.2C5.99979 11.2526 6.01014 11.3046 6.03025 11.3532C6.05037 11.4017 6.07985 11.4458 6.11701 11.483C6.19207 11.5581 6.29387 11.6002 6.40001 11.6002C6.45257 11.6002 6.50461 11.5899 6.55317 11.5698C6.60173 11.5496 6.64585 11.5202 6.68301 11.483L7.60001 10.5655V13.6C7.60001 13.7061 7.64216 13.8078 7.71717 13.8828C7.79218 13.9579 7.89393 14 8.00001 14C8.1061 14 8.20784 13.9579 8.28286 13.8828C8.35787 13.8078 8.40001 13.7061 8.40001 13.6V10.5655L9.31701 11.483C9.35418 11.5202 9.3983 11.5496 9.44685 11.5698C9.49541 11.5899 9.54745 11.6002 9.60001 11.6002C9.65257 11.6002 9.70461 11.5899 9.75317 11.5698C9.80173 11.5496 9.84585 11.5202 9.88301 11.483C9.92018 11.4458 9.94966 11.4017 9.96977 11.3532C9.98988 11.3046 10.0002 11.2526 10.0002 11.2C10.0002 11.1474 9.98988 11.0954 9.96977 11.0468C9.94966 10.9983 9.92018 10.9542 9.88301 10.917L8.28301 9.317Z" fill="#808080"/>
</svg>
