<svg width="16" height="16" viewBox="0 0 16 16" fill="none" xmlns="http://www.w3.org/2000/svg">
<g clip-path="url(#clip0_369_695)">
<path d="M8 1.33325V14.6666" stroke="white" stroke-linecap="round" stroke-linejoin="round"/>
<path d="M5.33337 6.66675H2.66671C2.31309 6.66675 1.97395 6.52627 1.7239 6.27622C1.47385 6.02618 1.33337 5.68704 1.33337 5.33341V4.00008C1.33337 3.64646 1.47385 3.30732 1.7239 3.05727C1.97395 2.80722 2.31309 2.66675 2.66671 2.66675H5.33337" stroke="white" stroke-linecap="round" stroke-linejoin="round"/>
<path d="M10.6666 6.66675H13.3333C13.6869 6.66675 14.0261 6.52627 14.2761 6.27622C14.5262 6.02618 14.6666 5.68704 14.6666 5.33341V4.00008C14.6666 3.64646 14.5262 3.30732 14.2761 3.05727C14.0261 2.80722 13.6869 2.66675 13.3333 2.66675H10.6666" stroke="white" stroke-linecap="round" stroke-linejoin="round"/>
<path d="M5.33337 13.3333H4.66671C4.31309 13.3333 3.97395 13.1928 3.7239 12.9427C3.47385 12.6927 3.33337 12.3535 3.33337 11.9999V10.6666C3.33337 10.313 3.47385 9.97383 3.7239 9.72378C3.97395 9.47373 4.31309 9.33325 4.66671 9.33325H5.33337" stroke="white" stroke-linecap="round" stroke-linejoin="round"/>
<path d="M10.6666 9.33325H11.3333C12.0666 9.33325 12.6666 9.93325 12.6666 10.6666V11.9999C12.6666 12.3535 12.5262 12.6927 12.2761 12.9427C12.0261 13.1928 11.6869 13.3333 11.3333 13.3333H10.6666" stroke="white" stroke-linecap="round" stroke-linejoin="round"/>
</g>
<defs>
<clipPath id="clip0_369_695">
<rect width="16" height="16" fill="white" transform="matrix(0 1 -1 0 16 0)"/>
</clipPath>
</defs>
</svg>
