<svg width="16" height="16" viewBox="0 0 16 16" fill="none" xmlns="http://www.w3.org/2000/svg">
<path d="M5.33341 4.745H4.00008C3.2637 4.745 2.66675 5.34195 2.66675 6.07833V12.745C2.66675 13.4814 3.2637 14.0783 4.00008 14.0783H5.33341C6.06979 14.0783 6.66675 13.4814 6.66675 12.745V6.07833C6.66675 5.34195 6.06979 4.745 5.33341 4.745Z" stroke="white" stroke-linecap="round" stroke-linejoin="round"/>
<path d="M11.9999 4.745H10.6666C9.93021 4.745 9.33325 5.34195 9.33325 6.07833V10.0783C9.33325 10.8147 9.93021 11.4117 10.6666 11.4117H11.9999C12.7363 11.4117 13.3333 10.8147 13.3333 10.0783V6.07833C13.3333 5.34195 12.7363 4.745 11.9999 4.745Z" stroke="white" stroke-linecap="round" stroke-linejoin="round"/>
<path d="M1.33325 1.92163L14.6667 1.92163" stroke="white" stroke-linecap="round" stroke-linejoin="round"/>
</svg>
