<svg width="16" height="16" viewBox="0 0 16 16" fill="none" xmlns="http://www.w3.org/2000/svg">
<path d="M4.11701 7.433C4.04196 7.35794 3.99979 7.25615 3.99979 7.15C3.99979 7.04385 4.04196 6.94206 4.11701 6.867C4.19207 6.79194 4.29387 6.74978 4.40001 6.74978C4.50616 6.74978 4.60796 6.79194 4.68301 6.867L7.60001 9.7845V3.15C7.60001 3.04391 7.64216 2.94217 7.71717 2.86716C7.79218 2.79214 7.89393 2.75 8.00001 2.75C8.1061 2.75 8.20784 2.79214 8.28286 2.86716C8.35787 2.94217 8.40001 3.04391 8.40001 3.15V9.7845L11.317 6.867C11.3542 6.82984 11.3983 6.80036 11.4469 6.78024C11.4954 6.76013 11.5475 6.74978 11.6 6.74978C11.6526 6.74978 11.7046 6.76013 11.7532 6.78024C11.8017 6.80036 11.8458 6.82984 11.883 6.867C11.9202 6.90416 11.9497 6.94828 11.9698 6.99684C11.9899 7.0454 12.0002 7.09744 12.0002 7.15C12.0002 7.20256 11.9899 7.2546 11.9698 7.30316C11.9497 7.35172 11.9202 7.39584 11.883 7.433L8.28301 11.033C8.24586 11.0702 8.20175 11.0997 8.15319 11.1198C8.10463 11.14 8.05258 11.1503 8.00001 11.1503C7.94745 11.1503 7.8954 11.14 7.84684 11.1198C7.79828 11.0997 7.75416 11.0702 7.71701 11.033L4.11701 7.433ZM12.4 11.95H3.60001C3.49393 11.95 3.39218 11.9921 3.31717 12.0672C3.24216 12.1422 3.20001 12.2439 3.20001 12.35C3.20001 12.4561 3.24216 12.5578 3.31717 12.6328C3.39218 12.7079 3.49393 12.75 3.60001 12.75H12.4C12.5061 12.75 12.6078 12.7079 12.6829 12.6328C12.7579 12.5578 12.8 12.4561 12.8 12.35C12.8 12.2439 12.7579 12.1422 12.6829 12.0672C12.6078 11.9921 12.5061 11.95 12.4 11.95Z" fill="white"/>
</svg>
