<svg width="16" height="16" viewBox="0 0 16 16" fill="none" xmlns="http://www.w3.org/2000/svg">
<path d="M14.0002 8.00039C14.0002 8.133 13.9475 8.26018 13.8537 8.35395C13.7599 8.44772 13.6328 8.50039 13.5002 8.50039H2.50015C2.36754 8.50039 2.24037 8.44772 2.1466 8.35395C2.05283 8.26018 2.00015 8.133 2.00015 8.00039C2.00015 7.86778 2.05283 7.74061 2.1466 7.64684C2.24037 7.55307 2.36754 7.50039 2.50015 7.50039H13.5002C13.6328 7.50039 13.7599 7.55307 13.8537 7.64684C13.9475 7.74061 14.0002 7.86778 14.0002 8.00039ZM6.3539 3.35414L7.50015 2.20727V6.00039C7.50015 6.133 7.55283 6.26018 7.6466 6.35395C7.74037 6.44771 7.86754 6.50039 8.00015 6.50039C8.13276 6.50039 8.25994 6.44771 8.35371 6.35395C8.44747 6.26018 8.50015 6.133 8.50015 6.00039V2.20727L9.6464 3.35414C9.74022 3.44796 9.86747 3.50067 10.0002 3.50067C10.1328 3.50067 10.2601 3.44796 10.3539 3.35414C10.4477 3.26032 10.5004 3.13308 10.5004 3.00039C10.5004 2.86771 10.4477 2.74046 10.3539 2.64664L8.3539 0.646643C8.30747 0.600155 8.25232 0.563276 8.19162 0.538113C8.13092 0.512951 8.06586 0.5 8.00015 0.5C7.93444 0.5 7.86938 0.512951 7.80868 0.538113C7.74798 0.563276 7.69284 0.600155 7.6464 0.646643L5.6464 2.64664C5.55258 2.74046 5.49987 2.86771 5.49987 3.00039C5.49987 3.13308 5.55258 3.26032 5.6464 3.35414C5.74022 3.44796 5.86747 3.50067 6.00015 3.50067C6.13283 3.50067 6.26008 3.44796 6.3539 3.35414ZM9.6464 12.6466L8.50015 13.7935V10.0004C8.50015 9.86778 8.44747 9.74061 8.35371 9.64684C8.25994 9.55307 8.13276 9.50039 8.00015 9.50039C7.86754 9.50039 7.74037 9.55307 7.6466 9.64684C7.55283 9.74061 7.50015 9.86778 7.50015 10.0004V13.7935L6.3539 12.6466C6.26008 12.5528 6.13283 12.5001 6.00015 12.5001C5.86747 12.5001 5.74022 12.5528 5.6464 12.6466C5.55258 12.7405 5.49987 12.8677 5.49987 13.0004C5.49987 13.1331 5.55258 13.2603 5.6464 13.3541L7.6464 15.3541C7.69284 15.4006 7.74798 15.4375 7.80868 15.4627C7.86938 15.4878 7.93444 15.5008 8.00015 15.5008C8.06586 15.5008 8.13092 15.4878 8.19162 15.4627C8.25232 15.4375 8.30747 15.4006 8.3539 15.3541L10.3539 13.3541C10.4477 13.2603 10.5004 13.1331 10.5004 13.0004C10.5004 12.8677 10.4477 12.7405 10.3539 12.6466C10.2601 12.5528 10.1328 12.5001 10.0002 12.5001C9.86747 12.5001 9.74022 12.5528 9.6464 12.6466Z" fill="#808080"/>
</svg>
