<svg width="16" height="16" viewBox="0 0 16 16" fill="none" xmlns="http://www.w3.org/2000/svg">
<path d="M8.0001 1.49976C6.71452 1.49976 5.45782 1.88097 4.3889 2.5952C3.31998 3.30943 2.48685 4.32459 1.99489 5.51231C1.50292 6.70003 1.37419 8.00697 1.625 9.26784C1.8758 10.5287 2.49487 11.6869 3.40391 12.596C4.31295 13.505 5.47114 14.1241 6.73202 14.3749C7.99289 14.6257 9.29982 14.4969 10.4875 14.005C11.6753 13.513 12.6904 12.6799 13.4047 11.611C14.1189 10.542 14.5001 9.28533 14.5001 7.99976C14.4983 6.27641 13.8129 4.62416 12.5943 3.40557C11.3757 2.18698 9.72345 1.50158 8.0001 1.49976ZM8.5001 2.52288C8.83859 2.55377 9.17341 2.61655 9.5001 2.71038V13.2916C9.17341 13.3855 8.83859 13.4482 8.5001 13.4791V2.52288ZM10.5001 3.10163C10.8565 3.28408 11.1918 3.50498 11.5001 3.76038V12.2391C11.1918 12.4945 10.8565 12.7154 10.5001 12.8979V3.10163ZM2.5001 7.99976C2.50175 6.62813 3.01521 5.3065 3.93999 4.29352C4.86478 3.28053 6.1343 2.64913 7.5001 2.52288V13.4766C6.1343 13.3504 4.86478 12.719 3.93999 11.706C3.01521 10.693 2.50175 9.37138 2.5001 7.99976ZM12.5001 11.1585V4.84101C13.1509 5.76577 13.5001 6.86897 13.5001 7.99976C13.5001 9.13055 13.1509 10.2337 12.5001 11.1585Z" fill="#808080"/>
</svg>
