<svg width="16" height="16" viewBox="0 0 16 16" fill="none" xmlns="http://www.w3.org/2000/svg">
<g clip-path="url(#clip0_1_229)">
<path d="M2.66666 2.66663H3.99999C4.35362 2.66663 4.69276 2.8071 4.9428 3.05715C5.19285 3.3072 5.33333 3.64634 5.33333 3.99996V12C5.33333 12.3536 5.19285 12.6927 4.9428 12.9428C4.69276 13.1928 4.35362 13.3333 3.99999 13.3333H2.66666" stroke="#808080" stroke-linecap="round" stroke-linejoin="round"/>
<path d="M13.3333 2.66663H12C11.6464 2.66663 11.3072 2.8071 11.0572 3.05715C10.8071 3.3072 10.6667 3.64634 10.6667 3.99996V12C10.6667 12.3536 10.8071 12.6927 11.0572 12.9428C11.3072 13.1928 11.6464 13.3333 12 13.3333H13.3333" stroke="#808080" stroke-linecap="round" stroke-linejoin="round"/>
<path d="M8 10.6667V5.33337" stroke="#808080" stroke-linecap="round" stroke-linejoin="round"/>
</g>
<defs>
<clipPath id="clip0_1_229">
<rect width="16" height="16" fill="white" transform="matrix(0 1 -1 0 16 0)"/>
</clipPath>
</defs>
</svg>
