<svg width="16" height="16" viewBox="0 0 16 16" fill="none" xmlns="http://www.w3.org/2000/svg">
<path d="M13.5 2.99951V5.49951C13.5 5.63212 13.4473 5.7593 13.3535 5.85307C13.2598 5.94683 13.1326 5.99951 13 5.99951C12.8674 5.99951 12.7402 5.94683 12.6464 5.85307C12.5527 5.7593 12.5 5.63212 12.5 5.49951V3.49951H10.5C10.3674 3.49951 10.2402 3.44683 10.1464 3.35307C10.0527 3.2593 9.99998 3.13212 9.99998 2.99951C9.99998 2.8669 10.0527 2.73973 10.1464 2.64596C10.2402 2.55219 10.3674 2.49951 10.5 2.49951H13C13.1326 2.49951 13.2598 2.55219 13.3535 2.64596C13.4473 2.73973 13.5 2.8669 13.5 2.99951ZM5.49998 12.4995H3.49998V10.4995C3.49998 10.3669 3.44731 10.2397 3.35354 10.146C3.25977 10.0522 3.13259 9.99951 2.99998 9.99951C2.86738 9.99951 2.7402 10.0522 2.64643 10.146C2.55266 10.2397 2.49998 10.3669 2.49998 10.4995V12.9995C2.49998 13.1321 2.55266 13.2593 2.64643 13.3531C2.7402 13.4468 2.86738 13.4995 2.99998 13.4995H5.49998C5.63259 13.4995 5.75977 13.4468 5.85354 13.3531C5.94731 13.2593 5.99998 13.1321 5.99998 12.9995C5.99998 12.8669 5.94731 12.7397 5.85354 12.646C5.75977 12.5522 5.63259 12.4995 5.49998 12.4995ZM13 9.99951C12.8674 9.99951 12.7402 10.0522 12.6464 10.146C12.5527 10.2397 12.5 10.3669 12.5 10.4995V12.4995H10.5C10.3674 12.4995 10.2402 12.5522 10.1464 12.646C10.0527 12.7397 9.99998 12.8669 9.99998 12.9995C9.99998 13.1321 10.0527 13.2593 10.1464 13.3531C10.2402 13.4468 10.3674 13.4995 10.5 13.4995H13C13.1326 13.4995 13.2598 13.4468 13.3535 13.3531C13.4473 13.2593 13.5 13.1321 13.5 12.9995V10.4995C13.5 10.3669 13.4473 10.2397 13.3535 10.146C13.2598 10.0522 13.1326 9.99951 13 9.99951ZM5.49998 2.49951H2.99998C2.86738 2.49951 2.7402 2.55219 2.64643 2.64596C2.55266 2.73973 2.49998 2.8669 2.49998 2.99951V5.49951C2.49998 5.63212 2.55266 5.7593 2.64643 5.85307C2.7402 5.94683 2.86738 5.99951 2.99998 5.99951C3.13259 5.99951 3.25977 5.94683 3.35354 5.85307C3.44731 5.7593 3.49998 5.63212 3.49998 5.49951V3.49951H5.49998C5.63259 3.49951 5.75977 3.44683 5.85354 3.35307C5.94731 3.2593 5.99998 3.13212 5.99998 2.99951C5.99998 2.8669 5.94731 2.73973 5.85354 2.64596C5.75977 2.55219 5.63259 2.49951 5.49998 2.49951Z" fill="#808080"/>
</svg>
