<svg width="58" height="49" viewBox="0 0 58 49" fill="none" xmlns="http://www.w3.org/2000/svg">
<path d="M5.92871 47.1943C6.24363 47.2566 6.57033 47.289 6.90527 47.2891H7.90527V48.2891H6.90527C6.50463 48.289 6.11304 48.2487 5.73438 48.1738L5.92871 47.1943ZM11.9053 48.2891H9.90527V47.2891H11.9053V48.2891ZM15.9053 48.2891H13.9053V47.2891H15.9053V48.2891ZM19.9053 48.2891H17.9053V47.2891H19.9053V48.2891ZM23.9053 48.2891H21.9053V47.2891H23.9053V48.2891ZM27.9053 48.2891H25.9053V47.2891H27.9053V48.2891ZM31.9053 48.2891H29.9053V47.2891H31.9053V48.2891ZM35.9053 48.2891H33.9053V47.2891H35.9053V48.2891ZM39.9053 48.2891H37.9053V47.2891H39.9053V48.2891ZM43.9785 47.6846L44.0615 48.1006L44.0752 48.1738C43.6968 48.2486 43.3056 48.2891 42.9053 48.2891H41.9053V47.2891H42.9053C43.2402 47.2891 43.5669 47.2566 43.8818 47.1943L43.9785 47.6846ZM2.74707 45.0664C3.11229 45.6119 3.58249 46.082 4.12793 46.4473L3.84863 46.8623L3.84961 46.8633L3.59766 47.2393L3.57129 47.2773C2.91733 46.8393 2.35386 46.2761 1.91602 45.6221L2.74707 45.0664ZM47.4785 45.3447L47.8936 45.6221C47.4555 46.2763 46.8925 46.8393 46.2383 47.2773L46.2129 47.2393L45.9609 46.8633L45.6826 46.4473C46.2282 46.082 46.6982 45.612 47.0635 45.0664L47.4785 45.3447ZM1.90527 42.2891C1.90529 42.6239 1.93776 42.9508 2 43.2656L1.50879 43.3623L1.50977 43.3633L1.01953 43.459C0.944789 43.0807 0.905289 42.6892 0.905273 42.2891V41.2891H1.90527V42.2891ZM48.9053 42.2891C48.9053 42.6893 48.8648 43.0806 48.79 43.459L48.3008 43.3633L47.8105 43.2656C47.8728 42.9507 47.9053 42.624 47.9053 42.2891V41.2891H48.9053V42.2891ZM1.90527 39.2891H0.905273V37.2891H1.90527V39.2891ZM43.4688 24.3223C43.6884 24.2699 43.9191 24.2795 44.1338 24.3496L56.4258 28.3633C56.6603 28.4419 56.8663 28.5899 57.0156 28.7871C57.1649 28.9846 57.2509 29.2234 57.2627 29.4707C57.2743 29.7179 57.211 29.9632 57.0811 30.1738L56.9727 30.3232C56.8536 30.4635 56.7037 30.5761 56.5342 30.6514L56.5088 30.6611L52.9707 32.0195L56.9102 35.96C57.024 36.0739 57.1151 36.2096 57.1768 36.3584C57.2383 36.5072 57.2704 36.6671 57.2705 36.8281L57.2637 36.9492C57.2518 37.069 57.223 37.1872 57.1768 37.2988L57.125 37.4082C57.0682 37.5143 56.9956 37.6118 56.9102 37.6973L55.9365 38.6709L55.8467 38.752C55.7537 38.8282 55.6496 38.8912 55.5381 38.9375L55.4238 38.9775C55.3087 39.0124 55.1881 39.0312 55.0674 39.0312L54.9473 39.0244C54.8674 39.0165 54.7878 39.0008 54.7109 38.9775L54.5977 38.9375C54.4489 38.8758 54.3131 38.7847 54.1992 38.6709L50.2588 34.7314L48.9004 38.2695L48.8906 38.2949L48.8086 38.4521C48.7156 38.6033 48.5899 38.7328 48.4404 38.8311C48.2411 38.9619 48.007 39.032 47.7686 39.0312H47.709L47.5244 39.0088C47.4037 38.9849 47.2868 38.9426 47.1787 38.8838L47.0225 38.7832C46.8248 38.6322 46.6782 38.4235 46.6025 38.1865L42.5889 25.8945C42.5362 25.7333 42.5179 25.5631 42.5342 25.3955L42.5615 25.2295C42.6141 25.0095 42.7268 24.8074 42.8867 24.6475C43.0067 24.5275 43.1507 24.4344 43.3076 24.373L43.4688 24.3223ZM43.7012 25.2949C43.661 25.3046 43.623 25.3253 43.5938 25.3545C43.5645 25.3838 43.5439 25.4216 43.5342 25.4619C43.5247 25.5021 43.5263 25.5447 43.5391 25.584H43.54L47.5527 37.876L47.5557 37.8828C47.569 37.9244 47.5952 37.9617 47.6299 37.9883C47.6634 38.0137 47.7042 38.0285 47.7461 38.0312H47.7725C47.8147 38.0313 47.8563 38.0183 47.8916 37.9951C47.9257 37.9726 47.9519 37.9405 47.9688 37.9033L49.3252 34.373L49.877 32.9355L50.9658 34.0244L54.9062 37.9639L54.9404 37.9922C54.9527 38.0004 54.9667 38.008 54.9805 38.0137C55.0078 38.0249 55.0378 38.0312 55.0674 38.0312C55.0972 38.0312 55.1277 38.0251 55.1553 38.0137C55.1828 38.0022 55.2084 37.985 55.2295 37.9639L56.2031 36.9902C56.2242 36.9691 56.2415 36.9436 56.2529 36.916C56.2643 36.8884 56.2705 36.858 56.2705 36.8281C56.2704 36.7985 56.2642 36.7686 56.2529 36.7412C56.2415 36.7137 56.2241 36.6881 56.2031 36.667L52.2637 32.7266L51.1748 31.6377L52.6123 31.0859L56.1338 29.7334C56.1732 29.7145 56.2075 29.6857 56.2305 29.6484C56.2545 29.6093 56.2668 29.5635 56.2646 29.5176C56.2624 29.4717 56.2454 29.4273 56.2178 29.3906C56.1901 29.3542 56.1518 29.3261 56.1084 29.3115V29.3105L43.8232 25.3008V25.2998C43.7841 25.2871 43.7412 25.2855 43.7012 25.2949ZM36.917 27.7891C37.1929 27.7893 37.4169 28.0132 37.417 28.2891V35.2891C37.417 35.5651 37.193 35.7889 36.917 35.7891H25.917C25.6408 35.7891 25.417 35.5652 25.417 35.2891V28.2891C25.4171 28.013 25.6409 27.7891 25.917 27.7891H36.917ZM1.90527 35.2891H0.905273V33.2891H1.90527V35.2891ZM26.417 34.7891H36.417V28.7891H26.417V34.7891ZM16.917 16.7891C17.132 16.7892 17.3235 16.9269 17.3916 17.1309L22.3916 32.1309C22.4424 32.2832 22.416 32.4507 22.3223 32.5811C22.2284 32.7113 22.0776 32.7889 21.917 32.7891H11.917C11.7563 32.7891 11.6057 32.7114 11.5117 32.5811C11.4178 32.4507 11.3916 32.2833 11.4424 32.1309L16.4424 17.1309L16.4736 17.0576C16.5588 16.8947 16.7288 16.7891 16.917 16.7891ZM12.6113 31.7891H21.2227L16.917 18.8711L12.6113 31.7891ZM1.90527 31.2891H0.905273V29.2891H1.90527V31.2891ZM1.90527 27.2891H0.905273V25.2891H1.90527V27.2891ZM28.417 12.7891C31.7305 12.7893 34.4169 15.4756 34.417 18.7891C34.417 22.1027 31.7305 24.7889 28.417 24.7891C25.1033 24.7891 22.417 22.1028 22.417 18.7891C22.4171 15.4755 25.1034 12.7891 28.417 12.7891ZM28.417 13.7891C25.6556 13.7891 23.4171 16.0278 23.417 18.7891C23.417 21.5505 25.6556 23.7891 28.417 23.7891C31.1783 23.7889 33.417 21.5504 33.417 18.7891C33.4169 16.0279 31.1782 13.7893 28.417 13.7891ZM1.90527 23.2891H0.905273V21.2891H1.90527V23.2891ZM48.9053 23.2891H47.9053V21.2891H48.9053V23.2891ZM1.90527 19.2891H0.905273V17.2891H1.90527V19.2891ZM48.9053 19.2891H47.9053V17.2891H48.9053V19.2891ZM1.90527 15.2891H0.905273V13.2891H1.90527V15.2891ZM48.9053 15.2891H47.9053V13.2891H48.9053V15.2891ZM1.90527 11.2891H0.905273V9.28906H1.90527V11.2891ZM48.9053 11.2891H47.9053V9.28906H48.9053V11.2891ZM1.50977 5.21484L2 5.3125C1.93775 5.62737 1.90529 5.95417 1.90527 6.28906V7.28906H0.905273V6.28906C0.905289 5.88854 0.944662 5.49672 1.01953 5.11816L1.50977 5.21484ZM48.79 5.11816C48.8649 5.49678 48.9053 5.88847 48.9053 6.28906V7.28906H47.9053V6.28906C47.9053 5.95417 47.8728 5.62737 47.8105 5.3125L48.3008 5.21484L48.79 5.11816ZM4.12793 2.13086C3.5824 2.49614 3.11233 2.96617 2.74707 3.51172L1.91602 2.95508C2.35393 2.30105 2.91727 1.73774 3.57129 1.2998L4.12793 2.13086ZM46.2383 1.2998C46.8924 1.73766 47.4555 2.3011 47.8936 2.95508L47.0635 3.51172C46.6982 2.96626 46.2281 2.49609 45.6826 2.13086L45.9766 1.69238L46.2383 1.2998ZM7.90527 1.28906H6.90527C6.57031 1.28908 6.24365 1.32151 5.92871 1.38379L5.8291 0.883789L5.73438 0.40332C6.11299 0.328423 6.50468 0.28908 6.90527 0.289062H7.90527V1.28906ZM42.9053 0.289062C43.3055 0.289062 43.6969 0.328566 44.0752 0.40332L43.9814 0.883789L43.8818 1.38379C43.5669 1.32154 43.2402 1.28906 42.9053 1.28906H41.9053V0.289062H42.9053ZM11.9053 1.28906H9.90527V0.289062H11.9053V1.28906ZM15.9053 1.28906H13.9053V0.289062H15.9053V1.28906ZM19.9053 1.28906H17.9053V0.289062H19.9053V1.28906ZM23.9053 1.28906H21.9053V0.289062H23.9053V1.28906ZM27.9053 1.28906H25.9053V0.289062H27.9053V1.28906ZM31.9053 1.28906H29.9053V0.289062H31.9053V1.28906ZM35.9053 1.28906H33.9053V0.289062H35.9053V1.28906ZM39.9053 1.28906H37.9053V0.289062H39.9053V1.28906Z" fill="#6B7280"/>
</svg>
