<svg width="16" height="16" viewBox="0 0 16 16" fill="none" xmlns="http://www.w3.org/2000/svg">
<g clip-path="url(#clip0_379_795)">
<path d="M3.33337 2.66659V3.99992C3.33337 4.7363 3.93033 5.33325 4.66671 5.33325H11.3334C12.0698 5.33325 12.6667 4.7363 12.6667 3.99992V2.66659C12.6667 1.93021 12.0698 1.33325 11.3334 1.33325H4.66671C3.93033 1.33325 3.33337 1.93021 3.33337 2.66659Z" stroke="#2863E5" stroke-linecap="round" stroke-linejoin="round"/>
<path d="M4.66663 9.33333V10.6667C4.66663 11.403 5.26358 12 5.99996 12H9.99996C10.7363 12 11.3333 11.403 11.3333 10.6667V9.33333C11.3333 8.59695 10.7363 8 9.99996 8H5.99996C5.26358 8 4.66663 8.59695 4.66663 9.33333Z" stroke="#2863E5" stroke-linecap="round" stroke-linejoin="round"/>
<path d="M1.33337 14.6667H14.6667" stroke="#2863E5" stroke-linecap="round" stroke-linejoin="round"/>
</g>
<defs>
<clipPath id="clip0_379_795">
<rect width="16" height="16" fill="white" transform="matrix(0 1 -1 0 16 0)"/>
</clipPath>
</defs>
</svg>
