<svg width="16" height="16" viewBox="0 0 16 16" fill="none" xmlns="http://www.w3.org/2000/svg">
<path d="M14.6666 5.33341V4.00008C14.6666 3.2637 14.0697 2.66675 13.3333 2.66675H2.66663C1.93023 2.66675 1.33329 3.2637 1.33329 4.00008V5.33341C1.33329 6.06979 1.93023 6.66675 2.66663 6.66675H13.3333C14.0697 6.66675 14.6666 6.06979 14.6666 5.33341Z" stroke="#2863E5" stroke-linecap="round" stroke-linejoin="round"/>
<path d="M13.3334 11.9999V10.6666C13.3334 9.93019 12.7364 9.33325 12 9.33325H4.00004C3.26364 9.33325 2.66671 9.93019 2.66671 10.6666V11.9999C2.66671 12.7363 3.26364 13.3333 4.00004 13.3333H12C12.7364 13.3333 13.3334 12.7363 13.3334 11.9999Z" stroke="#2863E5" stroke-linecap="round" stroke-linejoin="round"/>
</svg>
