<svg width="16" height="16" viewBox="0 0 16 16" fill="none" xmlns="http://www.w3.org/2000/svg">
<path d="M4.66667 3.33325H3.33333C2.59695 3.33325 2 3.93021 2 4.66659V11.3333C2 12.0696 2.59695 12.6666 3.33333 12.6666H4.66667C5.40305 12.6666 6 12.0696 6 11.3333V4.66659C6 3.93021 5.40305 3.33325 4.66667 3.33325Z" stroke="#2863E5" stroke-linecap="round" stroke-linejoin="round"/>
<path d="M12.6667 4.66675H11.3333C10.597 4.66675 10 5.2637 10 6.00008V10.0001C10 10.7365 10.597 11.3334 11.3333 11.3334H12.6667C13.403 11.3334 14 10.7365 14 10.0001V6.00008C14 5.2637 13.403 4.66675 12.6667 4.66675Z" stroke="#2863E5" stroke-linecap="round" stroke-linejoin="round"/>
<path d="M2 1.33325V14.6666" stroke="#2863E5" stroke-linecap="round" stroke-linejoin="round"/>
<path d="M14 1.33325V14.6666" stroke="#2863E5" stroke-linecap="round" stroke-linejoin="round"/>
</svg>
