<svg width="16" height="16" viewBox="0 0 16 16" fill="none" xmlns="http://www.w3.org/2000/svg">
<g clip-path="url(#clip0_379_817)">
<path d="M12.6666 6.66667V5.33333C12.6666 4.59695 12.0697 4 11.3333 4H4.66663C3.93025 4 3.33329 4.59695 3.33329 5.33333V6.66667C3.33329 7.40305 3.93025 8 4.66663 8H11.3333C12.0697 8 12.6666 7.40305 12.6666 6.66667Z" stroke="#2863E5" stroke-linecap="round" stroke-linejoin="round"/>
<path d="M11.3334 13.3333V12C11.3334 11.2636 10.7364 10.6666 10 10.6666H6.00004C5.26366 10.6666 4.66671 11.2636 4.66671 12V13.3333C4.66671 14.0697 5.26366 14.6666 6.00004 14.6666H10C10.7364 14.6666 11.3334 14.0697 11.3334 13.3333Z" stroke="#2863E5" stroke-linecap="round" stroke-linejoin="round"/>
<path d="M14.6666 1.33337H1.33329" stroke="#2863E5" stroke-linecap="round" stroke-linejoin="round"/>
</g>
<defs>
<clipPath id="clip0_379_817">
<rect width="16" height="16" fill="white" transform="matrix(0 1 -1 0 16 0)"/>
</clipPath>
</defs>
</svg>
