<svg width="16" height="16" viewBox="0 0 16 16" fill="none" xmlns="http://www.w3.org/2000/svg">
<path d="M12.6666 4.66667V3.33333C12.6666 2.59695 12.0697 2 11.3333 2H4.66663C3.93025 2 3.33329 2.59695 3.33329 3.33333V4.66667C3.33329 5.40305 3.93025 6 4.66663 6H11.3333C12.0697 6 12.6666 5.40305 12.6666 4.66667Z" stroke="white" stroke-linecap="round" stroke-linejoin="round"/>
<path d="M11.3334 12.6667V11.3333C11.3334 10.597 10.7364 10 10 10H6.00004C5.26366 10 4.66671 10.597 4.66671 11.3333V12.6667C4.66671 13.403 5.26366 14 6.00004 14H10C10.7364 14 11.3334 13.403 11.3334 12.6667Z" stroke="white" stroke-linecap="round" stroke-linejoin="round"/>
<path d="M14.6666 2H1.33329" stroke="white" stroke-linecap="round" stroke-linejoin="round"/>
<path d="M14.6666 14H1.33329" stroke="white" stroke-linecap="round" stroke-linejoin="round"/>
</svg>
