<svg width="16" height="16" viewBox="0 0 16 16" fill="none" xmlns="http://www.w3.org/2000/svg">
<path d="M4.7493 11.6576C4.79551 11.6794 4.84557 11.6918 4.8966 11.6943C4.94763 11.6967 4.99864 11.6891 5.04672 11.6718C5.0948 11.6545 5.13899 11.6279 5.17679 11.5935C5.21458 11.5591 5.24523 11.5177 5.26698 11.4714L6.07681 9.75018H9.97524L10.7851 11.4714C10.8068 11.5176 10.8375 11.5591 10.8753 11.5935C10.9131 11.6279 10.9573 11.6544 11.0053 11.6717C11.0534 11.689 11.1044 11.6967 11.1555 11.6942C11.2065 11.6918 11.2565 11.6794 11.3027 11.6576C11.349 11.6358 11.3904 11.6052 11.4248 11.5674C11.4592 11.5296 11.4858 11.4854 11.503 11.4373C11.5203 11.3892 11.528 11.3382 11.5256 11.2872C11.5231 11.2362 11.5107 11.1861 11.4889 11.1399L8.37795 4.5291C8.34655 4.4623 8.29678 4.40581 8.23446 4.36624C8.17214 4.32668 8.09984 4.30566 8.02602 4.30566C7.9522 4.30566 7.87991 4.32668 7.81759 4.36624C7.75527 4.40581 7.7055 4.4623 7.6741 4.5291L4.56313 11.1399C4.54134 11.1861 4.52888 11.2362 4.52644 11.2872C4.52401 11.3382 4.53166 11.3893 4.54894 11.4373C4.56623 11.4854 4.59283 11.5296 4.62721 11.5674C4.66158 11.6052 4.70307 11.6358 4.7493 11.6576ZM8.02602 5.60822L9.60922 8.97244H6.44283L8.02602 5.60822Z" fill="#808080"/>
<path d="M1.17245 1.14645C1.07868 1.24022 1.026 1.36739 1.026 1.5C1.026 1.63261 1.07868 1.75979 1.17245 1.85355C1.26622 1.94732 1.39339 2 1.526 2L14.526 2C14.6586 2 14.7858 1.94732 14.8796 1.85355C14.9733 1.75979 15.026 1.63261 15.026 1.5C15.026 1.36739 14.9733 1.24021 14.8796 1.14645C14.7858 1.05268 14.6586 1 14.526 1L1.526 1C1.39339 1 1.26622 1.05268 1.17245 1.14645Z" fill="#808080"/>
<path d="M1.17245 14.1464C1.07868 14.2402 1.026 14.3674 1.026 14.5C1.026 14.6326 1.07868 14.7598 1.17245 14.8536C1.26622 14.9473 1.39339 15 1.526 15L14.526 15C14.6586 15 14.7858 14.9473 14.8796 14.8536C14.9733 14.7598 15.026 14.6326 15.026 14.5C15.026 14.3674 14.9733 14.2402 14.8796 14.1464C14.7858 14.0527 14.6586 14 14.526 14L1.526 14C1.39339 14 1.26622 14.0527 1.17245 14.1464Z" fill="#808080"/>
</svg>
