<svg width="16" height="16" viewBox="0 0 16 16" fill="none" xmlns="http://www.w3.org/2000/svg">
<path d="M1.5 8.99979C1.50115 10.0603 1.92295 11.077 2.67285 11.8269C3.42274 12.5768 4.43949 12.9986 5.5 12.9998H11C11.1326 12.9998 11.2598 12.9471 11.3535 12.8533C11.4473 12.7596 11.5 12.6324 11.5 12.4998C11.5 12.3672 11.4473 12.24 11.3535 12.1462C11.2598 12.0525 11.1326 11.9998 11 11.9998H5.5C4.70435 11.9998 3.94128 11.6837 3.37868 11.1211C2.81607 10.5585 2.5 9.79544 2.5 8.99979C2.5 8.20414 2.81607 7.44108 3.37868 6.87847C3.94128 6.31586 4.70435 5.99979 5.5 5.99979H12.7931L10.6462 8.14604C10.5524 8.23986 10.4997 8.36711 10.4997 8.49979C10.4997 8.63247 10.5524 8.75972 10.6462 8.85354C10.7401 8.94736 10.8673 9.00007 11 9.00007C11.1327 9.00007 11.2599 8.94736 11.3537 8.85354L14.3537 5.85354C14.4002 5.8071 14.4371 5.75196 14.4623 5.69126C14.4874 5.63056 14.5004 5.5655 14.5004 5.49979C14.5004 5.43408 14.4874 5.36902 14.4623 5.30832C14.4371 5.24762 14.4002 5.19248 14.3537 5.14604L11.3537 2.14604C11.2599 2.05222 11.1327 1.99951 11 1.99951C10.8673 1.99951 10.7401 2.05222 10.6462 2.14604C10.5524 2.23986 10.4997 2.36711 10.4997 2.49979C10.4997 2.63247 10.5524 2.75972 10.6462 2.85354L12.7931 4.99979H5.5C4.43949 5.00095 3.42274 5.42275 2.67285 6.17264C1.92295 6.92254 1.50115 7.93928 1.5 8.99979Z" fill="#808080"/>
</svg>
