<svg width="16" height="16" viewBox="0 0 16 16" fill="none" xmlns="http://www.w3.org/2000/svg">
<g clip-path="url(#clip0_379_825)">
<path d="M2.66663 13.3333V12C2.66663 11.6463 2.8071 11.3072 3.05715 11.0572C3.3072 10.8071 3.64634 10.6666 3.99996 10.6666H12C12.3536 10.6666 12.6927 10.8071 12.9428 11.0572C13.1928 11.3072 13.3333 11.6463 13.3333 12V13.3333" stroke="#2863E5" stroke-linecap="round" stroke-linejoin="round"/>
<path d="M2.66663 2.66675V4.00008C2.66663 4.3537 2.8071 4.69284 3.05715 4.94289C3.3072 5.19294 3.64634 5.33341 3.99996 5.33341H12C12.3536 5.33341 12.6927 5.19294 12.9428 4.94289C13.1928 4.69284 13.3333 4.3537 13.3333 4.00008V2.66675" stroke="#2863E5" stroke-linecap="round" stroke-linejoin="round"/>
<path d="M10.6667 8H5.33337" stroke="#2863E5" stroke-linecap="round" stroke-linejoin="round"/>
</g>
<defs>
<clipPath id="clip0_379_825">
<rect width="16" height="16" fill="white"/>
</clipPath>
</defs>
</svg>
