<svg width="24" height="24" viewBox="0 0 24 24" fill="none" xmlns="http://www.w3.org/2000/svg">
<path d="M17.9365 3C20.0587 3 21.1201 3.00015 21.9307 3.41309C22.6437 3.7764 23.2236 4.3563 23.5869 5.06934C23.9999 5.87993 24 6.94132 24 9.06348V15.8838C24 18.0059 23.9998 19.0673 23.5869 19.8779C23.2236 20.591 22.6437 21.1709 21.9307 21.5342C21.1201 21.9471 20.0587 21.9473 17.9365 21.9473H6.06348C3.94129 21.9473 2.87993 21.9471 2.06934 21.5342C1.3563 21.1709 0.776396 20.591 0.413086 19.8779C0.000187812 19.0673 0 18.0059 0 15.8838V9.06348C0 6.94132 0.000146151 5.87993 0.413086 5.06934C0.776396 4.3563 1.3563 3.7764 2.06934 3.41309C2.87993 3.00015 3.94132 3 6.06348 3H17.9365ZM4.4209 5.52637C3.37459 5.52645 2.52645 6.37459 2.52637 7.4209C2.52637 8.46728 3.37454 9.31535 4.4209 9.31543C5.46733 9.31543 6.31543 8.46733 6.31543 7.4209C6.31535 6.37454 5.46728 5.52637 4.4209 5.52637ZM9.47363 5.52637C8.42727 5.5264 7.57918 6.37455 7.5791 7.4209C7.5791 8.46732 8.42722 9.3154 9.47363 9.31543C10.5201 9.31543 11.3682 8.46733 11.3682 7.4209C11.3681 6.37453 10.52 5.52637 9.47363 5.52637Z" fill="#2863E5"/>
</svg>
