<svg width="24" height="24" viewBox="0 0 24 24" fill="none" xmlns="http://www.w3.org/2000/svg">
<g clip-path="url(#clip0_26_79)">
<path d="M7.10813 5.74964C7.02844 5.67004 6.96522 5.57551 6.92209 5.47146C6.87896 5.36741 6.85676 5.25588 6.85676 5.14324C6.85676 5.03061 6.87896 4.91908 6.92209 4.81503C6.96522 4.71098 7.02844 4.61645 7.10813 4.53685L11.3936 0.251374C11.4732 0.171685 11.5677 0.108466 11.6718 0.0653336C11.7758 0.0222009 11.8874 0 12 0C12.1126 0 12.2242 0.0222009 12.3282 0.0653336C12.4323 0.108466 12.5268 0.171685 12.6064 0.251374L16.8919 4.53685C16.9716 4.61645 17.0348 4.71098 17.0779 4.81503C17.121 4.91908 17.1432 5.03061 17.1432 5.14324C17.1432 5.25588 17.121 5.36741 17.0779 5.47146C17.0348 5.57551 16.9716 5.67004 16.8919 5.74964L12.6064 10.0351C12.5268 10.1148 12.4323 10.178 12.3282 10.2212C12.2242 10.2643 12.1126 10.2865 12 10.2865C11.8874 10.2865 11.7758 10.2643 11.6718 10.2212C11.5677 10.178 11.4732 10.1148 11.3936 10.0351L7.10813 5.74964ZM12.6064 13.9649C12.5268 13.8852 12.4323 13.822 12.3282 13.7788C12.2242 13.7357 12.1126 13.7135 12 13.7135C11.8874 13.7135 11.7758 13.7357 11.6718 13.7788C11.5677 13.822 11.4732 13.8852 11.3936 13.9649L7.10813 18.2504C7.02844 18.33 6.96522 18.4245 6.92209 18.5285C6.87896 18.6326 6.85676 18.7441 6.85676 18.8568C6.85676 18.9694 6.87896 19.0809 6.92209 19.185C6.96522 19.289 7.02844 19.3836 7.10813 19.4632L11.3936 23.7486C11.4732 23.8283 11.5677 23.8915 11.6718 23.9347C11.7758 23.9778 11.8874 24 12 24C12.1126 24 12.2242 23.9778 12.3282 23.9347C12.4323 23.8915 12.5268 23.8283 12.6064 23.7486L16.8919 19.4632C16.9716 19.3836 17.0348 19.289 17.0779 19.185C17.121 19.0809 17.1432 18.9694 17.1432 18.8568C17.1432 18.7441 17.121 18.6326 17.0779 18.5285C17.0348 18.4245 16.9716 18.33 16.8919 18.2504L12.6064 13.9649ZM23.7486 11.3936L19.4632 7.10813C19.3836 7.02844 19.289 6.96522 19.185 6.92209C19.0809 6.87896 18.9694 6.85676 18.8568 6.85676C18.7441 6.85676 18.6326 6.87896 18.5285 6.92209C18.4245 6.96522 18.33 7.02844 18.2504 7.10813L13.9649 11.3936C13.8852 11.4732 13.822 11.5677 13.7788 11.6718C13.7357 11.7758 13.7135 11.8874 13.7135 12C13.7135 12.1126 13.7357 12.2242 13.7788 12.3282C13.822 12.4323 13.8852 12.5268 13.9649 12.6064L18.2504 16.8919C18.33 16.9716 18.4245 17.0348 18.5285 17.0779C18.6326 17.121 18.7441 17.1432 18.8568 17.1432C18.9694 17.1432 19.0809 17.121 19.185 17.0779C19.289 17.0348 19.3836 16.9716 19.4632 16.8919L23.7486 12.6064C23.8283 12.5268 23.8915 12.4323 23.9347 12.3282C23.9778 12.2242 24 12.1126 24 12C24 11.8874 23.9778 11.7758 23.9347 11.6718C23.8915 11.5677 23.8283 11.4732 23.7486 11.3936ZM10.0351 11.3936L5.74964 7.10813C5.67004 7.02844 5.57551 6.96522 5.47146 6.92209C5.36741 6.87896 5.25588 6.85676 5.14324 6.85676C5.03061 6.85676 4.91908 6.87896 4.81503 6.92209C4.71098 6.96522 4.61645 7.02844 4.53685 7.10813L0.251374 11.3936C0.171685 11.4732 0.108466 11.5677 0.0653336 11.6718C0.0222009 11.7758 0 11.8874 0 12C0 12.1126 0.0222009 12.2242 0.0653336 12.3282C0.108466 12.4323 0.171685 12.5268 0.251374 12.6064L4.53685 16.8919C4.61645 16.9716 4.71098 17.0348 4.81503 17.0779C4.91908 17.121 5.03061 17.1432 5.14324 17.1432C5.25588 17.1432 5.36741 17.121 5.47146 17.0779C5.57551 17.0348 5.67004 16.9716 5.74964 16.8919L10.0351 12.6064C10.1148 12.5268 10.178 12.4323 10.2212 12.3282C10.2643 12.2242 10.2865 12.1126 10.2865 12C10.2865 11.8874 10.2643 11.7758 10.2212 11.6718C10.178 11.5677 10.1148 11.4732 10.0351 11.3936Z" fill="#D845EF"/>
</g>
<defs>
<clipPath id="clip0_26_79">
<rect width="24" height="24" fill="white"/>
</clipPath>
</defs>
</svg>
