<svg width="24" height="24" viewBox="0 0 24 24" fill="none" xmlns="http://www.w3.org/2000/svg">
<g clip-path="url(#clip0_26_77)">
<path d="M7.22256 4.51661C7.91173 3.82758 9.02953 3.82749 9.71865 4.51661C10.4077 5.20573 10.4077 6.32355 9.71865 7.0127L4.25967 12.4707L9.71865 17.9297C10.4071 18.6188 10.4072 19.7358 9.71865 20.4248C9.02957 21.1135 7.91165 21.1135 7.22256 20.4248L0.516507 13.7188C-0.17249 13.0297 -0.172295 11.9128 0.516507 11.2236L7.22256 4.51661ZM14.2812 4.51661C14.9703 3.82748 16.0881 3.82746 16.7772 4.51661L23.4833 11.2236C24.172 11.9128 24.1722 13.0297 23.4833 13.7188L16.7772 20.4248C16.0882 21.1135 14.9702 21.1135 14.2812 20.4248C13.5925 19.7358 13.5926 18.6188 14.2812 17.9297L19.7401 12.4707L14.2812 7.0127C13.592 6.32353 13.592 5.20577 14.2812 4.51661Z" fill="#2863E5"/>
</g>
<defs>
<clipPath id="clip0_26_77">
<rect width="24" height="24" fill="white"/>
</clipPath>
</defs>
</svg>
