<svg width="16" height="16" viewBox="0 0 16 16" fill="none" xmlns="http://www.w3.org/2000/svg">
<path d="M2 4C2 3.86739 2.05268 3.74021 2.14645 3.64645C2.24021 3.55268 2.36739 3.5 2.5 3.5H13.5C13.6326 3.5 13.7598 3.55268 13.8536 3.64645C13.9473 3.74021 14 3.86739 14 4C14 4.13261 13.9473 4.25979 13.8536 4.35355C13.7598 4.44732 13.6326 4.5 13.5 4.5H2.5C2.36739 4.5 2.24021 4.44732 2.14645 4.35355C2.05268 4.25979 2 4.13261 2 4Z" fill="#808080"/>
<path d="M8.5 8.5H2.5C2.36739 8.5 2.24021 8.44732 2.14645 8.35355C2.05268 8.25979 2 8.13261 2 8C2 7.86739 2.05268 7.74021 2.14645 7.64645C2.24021 7.55268 2.36739 7.5 2.5 7.5H8.5C8.63261 7.5 8.75979 7.55268 8.85355 7.64645C8.94732 7.74021 9 7.86739 9 8C9 8.13261 8.94732 8.25979 8.85355 8.35355C8.75979 8.44732 8.63261 8.5 8.5 8.5Z" fill="#808080"/>
<path d="M2.5 11.5H10.5C10.6326 11.5 10.7598 11.5527 10.8536 11.6464C10.9473 11.7402 11 11.8674 11 12C11 12.1326 10.9473 12.2598 10.8536 12.3536C10.7598 12.4473 10.6326 12.5 10.5 12.5H2.5C2.36739 12.5 2.24021 12.4473 2.14645 12.3536C2.05268 12.2598 2 12.1326 2 12C2 11.8674 2.05268 11.7402 2.14645 11.6464C2.24021 11.5527 2.36739 11.5 2.5 11.5Z" fill="#808080"/>
</svg>
