<svg width="16" height="16" viewBox="0 0 16 16" fill="none" xmlns="http://www.w3.org/2000/svg">
<path d="M2 4C2 3.86739 2.05268 3.74021 2.14645 3.64645C2.24021 3.55268 2.36739 3.5 2.5 3.5H13.5C13.6326 3.5 13.7598 3.55268 13.8536 3.64645C13.9473 3.74021 14 3.86739 14 4C14 4.13261 13.9473 4.25979 13.8536 4.35355C13.7598 4.44732 13.6326 4.5 13.5 4.5H2.5C2.36739 4.5 2.24021 4.44732 2.14645 4.35355C2.05268 4.25979 2 4.13261 2 4Z" fill="white"/>
<path d="M13.5 8.5H7.5C7.36739 8.5 7.24021 8.44732 7.14645 8.35355C7.05268 8.25979 7 8.13261 7 8C7 7.86739 7.05268 7.74021 7.14645 7.64645C7.24021 7.55268 7.36739 7.5 7.5 7.5H13.5C13.6326 7.5 13.7598 7.55268 13.8536 7.64645C13.9473 7.74021 14 7.86739 14 8C14 8.13261 13.9473 8.25979 13.8536 8.35355C13.7598 8.44732 13.6326 8.5 13.5 8.5Z" fill="white"/>
<path d="M5.5 11.5H13.5C13.6326 11.5 13.7598 11.5527 13.8536 11.6464C13.9473 11.7402 14 11.8674 14 12C14 12.1326 13.9473 12.2598 13.8536 12.3536C13.7598 12.4473 13.6326 12.5 13.5 12.5H5.5C5.36739 12.5 5.24021 12.4473 5.14645 12.3536C5.05268 12.2598 5 12.1326 5 12C5 11.8674 5.05268 11.7402 5.14645 11.6464C5.24021 11.5527 5.36739 11.5 5.5 11.5Z" fill="white"/>
</svg>
