<svg width="16" height="16" viewBox="0 0 16 16" fill="none" xmlns="http://www.w3.org/2000/svg">
<path d="M4.72327 11.6576C4.76948 11.6794 4.81953 11.6918 4.87057 11.6943C4.9216 11.6967 4.97261 11.6891 5.02069 11.6718C5.06876 11.6545 5.11296 11.6279 5.15076 11.5935C5.18855 11.5591 5.2192 11.5177 5.24095 11.4714L6.05078 9.75018H9.94921L10.759 11.4714C10.7808 11.5176 10.8115 11.5591 10.8493 11.5935C10.887 11.6279 10.9312 11.6544 10.9793 11.6717C11.0274 11.689 11.0784 11.6967 11.1294 11.6942C11.1804 11.6918 11.2305 11.6794 11.2767 11.6576C11.3229 11.6358 11.3644 11.6052 11.3988 11.5674C11.4331 11.5296 11.4597 11.4854 11.477 11.4373C11.4943 11.3892 11.502 11.3382 11.4995 11.2872C11.4971 11.2362 11.4847 11.1861 11.4629 11.1399L8.35192 4.5291C8.32052 4.4623 8.27075 4.40581 8.20843 4.36624C8.14611 4.32668 8.07381 4.30566 7.99999 4.30566C7.92617 4.30566 7.85388 4.32668 7.79156 4.36624C7.72924 4.40581 7.67947 4.4623 7.64806 4.5291L4.5371 11.1399C4.51531 11.1861 4.50284 11.2362 4.50041 11.2872C4.49798 11.3382 4.50562 11.3893 4.52291 11.4373C4.5402 11.4854 4.5668 11.5296 4.60117 11.5674C4.63555 11.6052 4.67704 11.6358 4.72327 11.6576ZM7.99999 5.60822L9.58318 8.97244H6.4168L7.99999 5.60822Z" fill="#808080"/>
<path d="M14.8536 2.14645C14.7598 2.05268 14.6326 2 14.5 2C14.3674 2 14.2402 2.05268 14.1464 2.14645C14.0527 2.24021 14 2.36739 14 2.5L14 13.5C14 13.6326 14.0527 13.7598 14.1464 13.8536C14.2402 13.9473 14.3674 14 14.5 14C14.6326 14 14.7598 13.9473 14.8536 13.8536C14.9473 13.7598 15 13.6326 15 13.5L15 2.5C15 2.36739 14.9473 2.24021 14.8536 2.14645Z" fill="#808080"/>
<path d="M1.85331 2.14645C1.75954 2.05268 1.63236 2 1.49976 2C1.36715 2 1.23997 2.05268 1.1462 2.14645C1.05243 2.24021 0.999755 2.36739 0.999755 2.5L0.999756 13.5C0.999756 13.6326 1.05243 13.7598 1.1462 13.8536C1.23997 13.9473 1.36715 14 1.49976 14C1.63236 14 1.75954 13.9473 1.85331 13.8536C1.94708 13.7598 1.99976 13.6326 1.99976 13.5L1.99976 2.5C1.99976 2.36739 1.94708 2.24021 1.85331 2.14645Z" fill="#808080"/>
</svg>
