<svg width="16" height="16" viewBox="0 0 16 16" fill="none" xmlns="http://www.w3.org/2000/svg">
<path d="M14.5 8.99979C14.4988 10.0603 14.077 11.077 13.3272 11.8269C12.5773 12.5768 11.5605 12.9986 10.5 12.9998H5.00001C4.8674 12.9998 4.74022 12.9471 4.64645 12.8533C4.55268 12.7596 4.50001 12.6324 4.50001 12.4998C4.50001 12.3672 4.55268 12.24 4.64645 12.1462C4.74022 12.0525 4.8674 11.9998 5.00001 11.9998H10.5C11.2957 11.9998 12.0587 11.6837 12.6213 11.1211C13.1839 10.5585 13.5 9.79544 13.5 8.99979C13.5 8.20414 13.1839 7.44108 12.6213 6.87847C12.0587 6.31586 11.2957 5.99979 10.5 5.99979H3.20688L5.35376 8.14604C5.44758 8.23986 5.50028 8.36711 5.50028 8.49979C5.50028 8.63247 5.44758 8.75972 5.35376 8.85354C5.25994 8.94736 5.13269 9.00007 5.00001 9.00007C4.86732 9.00007 4.74008 8.94736 4.64626 8.85354L1.64626 5.85354C1.59977 5.8071 1.56289 5.75196 1.53773 5.69126C1.51256 5.63056 1.49961 5.5655 1.49961 5.49979C1.49961 5.43408 1.51256 5.36902 1.53773 5.30832C1.56289 5.24762 1.59977 5.19248 1.64626 5.14604L4.64626 2.14604C4.74008 2.05222 4.86732 1.99951 5.00001 1.99951C5.13269 1.99951 5.25994 2.05222 5.35376 2.14604C5.44758 2.23986 5.50028 2.36711 5.50028 2.49979C5.50028 2.63247 5.44758 2.75972 5.35376 2.85354L3.20688 4.99979H10.5C11.5605 5.00095 12.5773 5.42275 13.3272 6.17264C14.077 6.92254 14.4988 7.93928 14.5 8.99979Z" fill="#808080"/>
</svg>
