<svg width="16" height="16" viewBox="0 0 16 16" fill="none" xmlns="http://www.w3.org/2000/svg">
<g clip-path="url(#clip0_379_852)">
<path d="M8 1.33337V14.6667" stroke="#2863E5" stroke-linecap="round" stroke-linejoin="round"/>
<path d="M5.33337 6.66663H2.66671C2.31309 6.66663 1.97395 6.52615 1.7239 6.2761C1.47385 6.02605 1.33337 5.68691 1.33337 5.33329V3.99996C1.33337 3.64634 1.47385 3.3072 1.7239 3.05715C1.97395 2.8071 2.31309 2.66663 2.66671 2.66663H5.33337" stroke="#2863E5" stroke-linecap="round" stroke-linejoin="round"/>
<path d="M10.6666 6.66663H13.3333C13.6869 6.66663 14.0261 6.52615 14.2761 6.2761C14.5262 6.02605 14.6666 5.68691 14.6666 5.33329V3.99996C14.6666 3.64634 14.5262 3.3072 14.2761 3.05715C14.0261 2.8071 13.6869 2.66663 13.3333 2.66663H10.6666" stroke="#2863E5" stroke-linecap="round" stroke-linejoin="round"/>
<path d="M5.33337 13.3334H4.66671C4.31309 13.3334 3.97395 13.1929 3.7239 12.9428C3.47385 12.6928 3.33337 12.3537 3.33337 12V10.6667C3.33337 10.3131 3.47385 9.97395 3.7239 9.7239C3.97395 9.47385 4.31309 9.33337 4.66671 9.33337H5.33337" stroke="#2863E5" stroke-linecap="round" stroke-linejoin="round"/>
<path d="M10.6666 9.33337H11.3333C12.0666 9.33337 12.6666 9.93337 12.6666 10.6667V12C12.6666 12.3537 12.5262 12.6928 12.2761 12.9428C12.0261 13.1929 11.6869 13.3334 11.3333 13.3334H10.6666" stroke="#2863E5" stroke-linecap="round" stroke-linejoin="round"/>
</g>
<defs>
<clipPath id="clip0_379_852">
<rect width="16" height="16" fill="white" transform="matrix(0 1 -1 0 16 0)"/>
</clipPath>
</defs>
</svg>
