<svg width="16" height="16" viewBox="0 0 16 16" fill="none" xmlns="http://www.w3.org/2000/svg">
<path d="M5.33341 11.255H4.00008C3.2637 11.255 2.66675 10.6581 2.66675 9.92167V3.255C2.66675 2.51863 3.2637 1.92167 4.00008 1.92167H5.33341C6.06979 1.92167 6.66675 2.51863 6.66675 3.255V9.92167C6.66675 10.6581 6.06979 11.255 5.33341 11.255Z" stroke="white" stroke-linecap="round" stroke-linejoin="round"/>
<path d="M11.9999 11.255H10.6666C9.93021 11.255 9.33325 10.6581 9.33325 9.92167V5.92167C9.33325 5.18529 9.93021 4.58834 10.6666 4.58834H11.9999C12.7363 4.58834 13.3333 5.18529 13.3333 5.92167V9.92167C13.3333 10.6581 12.7363 11.255 11.9999 11.255Z" stroke="white" stroke-linecap="round" stroke-linejoin="round"/>
<path d="M1.33325 14.0784L14.6667 14.0784" stroke="white" stroke-linecap="round" stroke-linejoin="round"/>
</svg>
