<svg width="16" height="16" viewBox="0 0 16 16" fill="none" xmlns="http://www.w3.org/2000/svg">
<path d="M7 1.32814V14.6615" stroke="#2863E5" stroke-linecap="round" stroke-linejoin="round"/>
<path d="M4.33325 6.65625H3.66658C3.31296 6.65625 2.97382 6.51577 2.72378 6.26573C2.47373 6.01568 2.33325 5.6765 2.33325 5.3229V3.9896C2.33325 3.636 2.47373 3.2968 2.72378 3.0468C2.97382 2.7967 3.31296 2.6562 3.66659 2.6562H4.33325" stroke="#2863E5" stroke-linecap="round" stroke-linejoin="round"/>
<path d="M9.66675 6.65625H12.3334C12.687 6.65625 13.0262 6.51577 13.2762 6.26573C13.5263 6.01568 13.6667 5.6765 13.6667 5.3229V3.9896C13.6667 3.636 13.5263 3.2968 13.2762 3.0468C13.0262 2.7967 12.687 2.6562 12.3334 2.6562H9.66675" stroke="#2863E5" stroke-linecap="round" stroke-linejoin="round"/>
<path d="M4.33325 13.3281H3.66658C3.31296 13.3281 2.97382 13.1876 2.72378 12.9376C2.47373 12.6875 2.33325 12.3484 2.33325 11.9948V10.6615C2.33325 10.3078 2.47373 9.96869 2.72378 9.71864C2.97382 9.46859 3.31296 9.32812 3.66659 9.32812H4.33325" stroke="#2863E5" stroke-linecap="round" stroke-linejoin="round"/>
<path d="M9.66675 9.32812H10.3334C11.0667 9.32812 11.6667 9.92812 11.6667 10.6615V11.9948C11.6667 12.3484 11.5263 12.6875 11.2762 12.9376C11.0262 13.1876 10.687 13.3281 10.3334 13.3281L9.66675 13.3281" stroke="#2863E5" stroke-linecap="round" stroke-linejoin="round"/>
</svg>
