<svg width="16" height="16" viewBox="0 0 16 16" fill="none" xmlns="http://www.w3.org/2000/svg">
<g clip-path="url(#clip0_369_683)">
<path d="M1.33331 8H14.6666" stroke="white" stroke-linecap="round" stroke-linejoin="round"/>
<path d="M6.66669 10.6667V13.3334C6.66669 13.687 6.52621 14.0262 6.27616 14.2762C6.02611 14.5263 5.68698 14.6667 5.33335 14.6667H4.00002C3.6464 14.6667 3.30726 14.5263 3.05721 14.2762C2.80716 14.0262 2.66669 13.687 2.66669 13.3334V10.6667" stroke="white" stroke-linecap="round" stroke-linejoin="round"/>
<path d="M6.66669 5.33325V2.66659C6.66669 2.31296 6.52621 1.97382 6.27616 1.72378C6.02611 1.47373 5.68698 1.33325 5.33335 1.33325H4.00002C3.6464 1.33325 3.30726 1.47373 3.05721 1.72378C2.80716 1.97382 2.66669 2.31296 2.66669 2.66659V5.33325" stroke="white" stroke-linecap="round" stroke-linejoin="round"/>
<path d="M13.3333 10.6667V11.3334C13.3333 11.687 13.1928 12.0262 12.9428 12.2762C12.6927 12.5263 12.3536 12.6667 12 12.6667H10.6666C10.313 12.6667 9.97389 12.5263 9.72384 12.2762C9.47379 12.0262 9.33331 11.687 9.33331 11.3334V10.6667" stroke="white" stroke-linecap="round" stroke-linejoin="round"/>
<path d="M9.33331 5.33325V4.66659C9.33331 3.93325 9.93331 3.33325 10.6666 3.33325H12C12.3536 3.33325 12.6927 3.47373 12.9428 3.72378C13.1928 3.97382 13.3333 4.31296 13.3333 4.66659V5.33325" stroke="white" stroke-linecap="round" stroke-linejoin="round"/>
</g>
<defs>
<clipPath id="clip0_369_683">
<rect width="16" height="16" fill="white"/>
</clipPath>
</defs>
</svg>
