<svg width="16" height="16" viewBox="0 0 16 16" fill="none" xmlns="http://www.w3.org/2000/svg">
<path d="M14.6719 7H1.33856" stroke="#2863E5" stroke-linecap="round" stroke-linejoin="round"/>
<path d="M9.34375 4.33325V3.66658C9.34375 3.31296 9.48423 2.97382 9.73427 2.72378C9.98432 2.47373 10.3235 2.33325 10.6771 2.33325H12.0104C12.364 2.33325 12.7032 2.47373 12.9532 2.72378C13.2033 2.97382 13.3438 3.31296 13.3438 3.66659V4.33325" stroke="#2863E5" stroke-linecap="round" stroke-linejoin="round"/>
<path d="M9.34375 9.66675V12.3334C9.34375 12.687 9.48423 13.0262 9.73427 13.2762C9.98432 13.5263 10.3235 13.6667 10.6771 13.6667H12.0104C12.364 13.6667 12.7032 13.5263 12.9532 13.2762C13.2033 13.0262 13.3438 12.687 13.3438 12.3334V9.66675" stroke="#2863E5" stroke-linecap="round" stroke-linejoin="round"/>
<path d="M2.67188 4.33325V3.66658C2.67188 3.31296 2.81236 2.97382 3.06241 2.72378C3.31246 2.47373 3.65159 2.33325 4.00521 2.33325H5.33855C5.69217 2.33325 6.03131 2.47373 6.28136 2.72378C6.53141 2.97382 6.67188 3.31296 6.67188 3.66659V4.33325" stroke="#2863E5" stroke-linecap="round" stroke-linejoin="round"/>
<path d="M6.67188 9.66675V10.3334C6.67188 11.0667 6.07188 11.6667 5.33855 11.6667H4.00521C3.65159 11.6667 3.31246 11.5263 3.06241 11.2762C2.81236 11.0262 2.67188 10.687 2.67188 10.3334L2.67189 9.66675" stroke="#2863E5" stroke-linecap="round" stroke-linejoin="round"/>
</svg>
