<svg width="16" height="16" viewBox="0 0 16 16" fill="none" xmlns="http://www.w3.org/2000/svg">
<g clip-path="url(#clip0_379_846)">
<path d="M1.33331 8H14.6666" stroke="#2863E5" stroke-linecap="round" stroke-linejoin="round"/>
<path d="M6.66669 10.6666V13.3333C6.66669 13.6869 6.52621 14.0261 6.27616 14.2761C6.02611 14.5262 5.68698 14.6666 5.33335 14.6666H4.00002C3.6464 14.6666 3.30726 14.5262 3.05721 14.2761C2.80716 14.0261 2.66669 13.6869 2.66669 13.3333V10.6666" stroke="#2863E5" stroke-linecap="round" stroke-linejoin="round"/>
<path d="M6.66669 5.33337V2.66671C6.66669 2.31309 6.52621 1.97395 6.27616 1.7239C6.02611 1.47385 5.68698 1.33337 5.33335 1.33337H4.00002C3.6464 1.33337 3.30726 1.47385 3.05721 1.7239C2.80716 1.97395 2.66669 2.31309 2.66669 2.66671V5.33337" stroke="#2863E5" stroke-linecap="round" stroke-linejoin="round"/>
<path d="M13.3333 10.6666V11.3333C13.3333 11.6869 13.1928 12.0261 12.9428 12.2761C12.6927 12.5261 12.3536 12.6666 12 12.6666H10.6666C10.313 12.6666 9.97389 12.5261 9.72384 12.2761C9.47379 12.0261 9.33331 11.6869 9.33331 11.3333V10.6666" stroke="#2863E5" stroke-linecap="round" stroke-linejoin="round"/>
<path d="M9.33331 5.33337V4.66671C9.33331 3.93337 9.93331 3.33337 10.6666 3.33337H12C12.3536 3.33337 12.6927 3.47385 12.9428 3.7239C13.1928 3.97395 13.3333 4.31309 13.3333 4.66671V5.33337" stroke="#2863E5" stroke-linecap="round" stroke-linejoin="round"/>
</g>
<defs>
<clipPath id="clip0_379_846">
<rect width="16" height="16" fill="white"/>
</clipPath>
</defs>
</svg>
