<svg width="16" height="16" viewBox="0 0 16 16" fill="none" xmlns="http://www.w3.org/2000/svg">
<path d="M5.33335 1.33325H4.00002C3.26364 1.33325 2.66669 1.93021 2.66669 2.66659V13.3333C2.66669 14.0697 3.26364 14.6666 4.00002 14.6666H5.33335C6.06973 14.6666 6.66669 14.0697 6.66669 13.3333V2.66659C6.66669 1.93021 6.06973 1.33325 5.33335 1.33325Z" stroke="white" stroke-linecap="round" stroke-linejoin="round"/>
<path d="M12 2.66675H10.6666C9.93025 2.66675 9.33331 3.2637 9.33331 4.00008V12.0001C9.33331 12.7365 9.93025 13.3334 10.6666 13.3334H12C12.7364 13.3334 13.3333 12.7365 13.3333 12.0001V4.00008C13.3333 3.2637 12.7364 2.66675 12 2.66675Z" stroke="white" stroke-linecap="round" stroke-linejoin="round"/>
</svg>
