<svg width="16" height="16" viewBox="0 0 16 16" fill="none" xmlns="http://www.w3.org/2000/svg">
<g clip-path="url(#clip0_367_623)">
<path d="M6.66667 3.33325H5.33333C4.59695 3.33325 4 3.93021 4 4.66659V11.3333C4 12.0696 4.59695 12.6666 5.33333 12.6666H6.66667C7.40305 12.6666 8 12.0696 8 11.3333V4.66659C8 3.93021 7.40305 3.33325 6.66667 3.33325Z" stroke="white" stroke-linecap="round" stroke-linejoin="round"/>
<path d="M13.3334 4.66675H12C11.2636 4.66675 10.6667 5.2637 10.6667 6.00008V10.0001C10.6667 10.7365 11.2636 11.3334 12 11.3334H13.3334C14.0697 11.3334 14.6667 10.7365 14.6667 10.0001V6.00008C14.6667 5.2637 14.0697 4.66675 13.3334 4.66675Z" stroke="white" stroke-linecap="round" stroke-linejoin="round"/>
<path d="M1.33331 1.33325V14.6666" stroke="white" stroke-linecap="round" stroke-linejoin="round"/>
</g>
<defs>
<clipPath id="clip0_367_623">
<rect width="16" height="16" fill="white"/>
</clipPath>
</defs>
</svg>
