<svg width="16" height="16" viewBox="0 0 16 16" fill="none" xmlns="http://www.w3.org/2000/svg">
<g clip-path="url(#clip0_379_830)">
<path d="M2.66669 2.66663V13.3333" stroke="#2863E5" stroke-width="1.33333" stroke-linecap="round" stroke-linejoin="round"/>
<path d="M13.3333 2.66663V13.3333" stroke="#2863E5" stroke-width="1.33333" stroke-linecap="round" stroke-linejoin="round"/>
<path d="M6 5.33333C6 4.97971 6.14048 4.64057 6.39052 4.39052C6.64057 4.14048 6.97971 4 7.33333 4H8.66667C9.02029 4 9.35943 4.14048 9.60948 4.39052C9.85952 4.64057 10 4.97971 10 5.33333V10.6667C10 11.0203 9.85952 11.3594 9.60948 11.6095C9.35943 11.8595 9.02029 12 8.66667 12H7.33333C6.97971 12 6.64057 11.8595 6.39052 11.6095C6.14048 11.3594 6 11.0203 6 10.6667V5.33333Z" stroke="#2863E5" stroke-width="1.33333" stroke-linecap="round" stroke-linejoin="round"/>
</g>
<defs>
<clipPath id="clip0_379_830">
<rect width="16" height="16" fill="white"/>
</clipPath>
</defs>
</svg>
