<svg width="208" height="46" viewBox="0 0 208 46" fill="none" xmlns="http://www.w3.org/2000/svg">
<path d="M181.106 45.2664H179.762C158.386 45.2664 153.458 42.2584 153.458 29.3304V1.23438H166.386V25.1704C166.386 34.0024 167.73 35.2184 179.89 35.2184H180.978C193.138 35.2184 194.482 33.9384 194.482 25.1704V1.23438H207.41V29.3304C207.41 42.2584 202.802 45.2664 181.106 45.2664Z" fill="white"/>
<path d="M129.065 11.0904V44.7544H116.137V11.0904H97.3853V1.23438H147.817V11.0904H129.065Z" fill="white"/>
<path d="M94.2531 1.25195L68.9228 45.2571L53.9209 45.2571L79.25 1.25668L94.2531 1.25195Z" fill="white"/>
<path d="M53.5792 31.2497V31.5697C53.5792 42.3857 50.4432 45.2657 29.1312 45.2657H27.0832C2.37916 45.2657 0.13916 43.0897 0.13916 32.0817V30.4817H12.9392V31.6337C12.9392 35.2817 14.7312 35.9217 26.1232 35.9217H27.7232C40.1392 35.9217 40.9072 35.0897 40.9072 31.8897V31.6337C40.9072 28.1777 40.0112 27.5377 26.8912 27.5377C2.82716 27.5377 0.45916 25.3617 0.45916 14.3537V14.0337C0.45916 3.21768 3.91516 0.72168 23.6912 0.72168H26.3152C50.1872 0.72168 52.2992 3.85768 52.2992 13.5857V14.9297H39.4992V14.2257C39.4992 11.0897 38.6672 9.93768 28.2992 9.93768H26.3792C14.0912 9.93768 13.1312 10.4497 13.1312 14.0337V14.2897C13.1312 17.4257 13.9632 17.8097 28.2352 17.8097C50.4432 17.8097 53.5792 19.6657 53.5792 31.2497Z" fill="white"/>
</svg>
